<mxfile host="app.diagrams.net" modified="2023-04-25T19:56:06.641Z" agent="Mozilla/5.0 (Macintosh; Intel Mac OS X 10.15; rv:109.0) Gecko/20100101 Firefox/112.0" version="21.1.9" etag="23opjMXGuMM_UQcoY0j_" type="github">
  <diagram name="Page-1" id="tjbKaKhlfUkzczWWm1Vc">
    <mxGraphModel>
      <root>
        <mxCell id="0" />
        <mxCell id="1" parent="0" />
      </root>
    </mxGraphModel>
  </diagram>
</mxfile>
